<svg aria-hidden="true" style="position:absolute;width:0;height:0" xmlns="http://www.w3.org/2000/svg" overflow="hidden"><defs>
<symbol id="luvlingo" viewBox="0 0 32 32"><path d="M9.237 32c-1.923-.011-3.764-.776-5.12-2.127S2 26.694 2 24.789V12.512a3.291 3.291 0 011.152-2.506L13.846.822a3.37 3.37 0 014.416 0l10.64 9.184c.352.317.633.704.822 1.136s.284.899.276 1.371v12.245c.005 1.111-.253 2.207-.752 3.202s-1.226 1.86-2.123 2.526a7.347 7.347 0 01-6.408 1.184 29.072 29.072 0 01-4.642-1.749 28.338 28.338 0 01-4.997 1.845 7.33 7.33 0 01-1.841.235zM16 1.995c-.325 0-.639.118-.883.331l-10.64 9.195a1.286 1.286 0 00-.452.993v12.277a5.174 5.174 0 002.057 4.138 5.161 5.161 0 004.533.939 23.5 23.5 0 003.231-1.067 34.588 34.588 0 01-6.041-4.267l-.14-.149a7.677 7.677 0 01-1.26-1.536 6.247 6.247 0 01.05-6.272c.561-.95 1.364-1.737 2.329-2.284s2.057-.833 3.168-.831a6.925 6.925 0 014.049 1.291 6.928 6.928 0 014.092-1.408c1.116-.012 2.215.268 3.187.811s1.782 1.329 2.35 2.281a6.242 6.242 0 01.063 6.295 7.677 7.677 0 01-1.26 1.536l-.119.117a31.677 31.677 0 01-5.923 4.341c.955.41 1.933.766 2.929 1.067a5.291 5.291 0 004.631-.864c.648-.479 1.174-1.102 1.535-1.819s.547-1.508.543-2.309V12.513a1.287 1.287 0 00-.452-.993L16.883 2.325A1.343 1.343 0 0016 1.994zm-4.092 13.354c-.76-.009-1.509.182-2.171.553s-1.213.909-1.597 1.559a4.232 4.232 0 00-.012 4.288c.269.41.587.786.948 1.12l.118.128a34.477 34.477 0 006.881 4.672 31.655 31.655 0 006.752-4.693l.097-.107c.361-.334.679-.71.948-1.12a4.233 4.233 0 00-.013-4.288c-.384-.65-.935-1.188-1.596-1.559s-1.411-.562-2.171-.553a4.822 4.822 0 00-2.671.864 4.674 4.674 0 01.841 3.627c-.183 1.195-.958 2.464-2.261 2.464s-2.078-1.269-2.272-2.517a4.653 4.653 0 01.851-3.574 4.82 4.82 0 00-2.671-.864zM16 17.76a2.56 2.56 0 00-.28 1.685c.043.288.138.567.28.821a2.27 2.27 0 00.269-.747c.122-.6.027-1.223-.269-1.76z"/></symbol>
<symbol id="small_luv_icon" viewBox="0 0 32 32"><path d="M22.432 2.5a9.757 9.757 0 00-6.485 2.484A9.757 9.757 0 009.462 2.5C4.253 2.5 0 6.82 0 12.112c0 1.62.425 3.24 1.169 4.752.532.972 1.276 1.728 1.914 2.376l10.738 9.288c.532.54 1.382.972 2.126.972s1.488-.324 2.126-.864l10.206-8.856.638-.648c.638-.648 1.382-1.404 1.914-2.376.851-1.404 1.169-3.024 1.169-4.752C31.894 6.82 27.641 2.5 22.432 2.5zm-6.485 5.4c.957 1.296 1.276 2.7 1.063 4.104-.106.648-.532 1.836-1.063 1.836s-.957-1.188-1.063-1.836c-.213-1.404.106-2.808 1.063-4.104zm12.97 7.884a12.81 12.81 0 01-1.595 1.944l-10.631 9.288-.106.108c-.213.216-.425.324-.638.324s-.531-.108-.744-.324L4.784 18.052l-.213-.324a12.87 12.87 0 01-1.595-1.944c-.638-1.08-.957-2.376-.957-3.78 0-4.212 3.402-7.56 7.442-7.56 1.807 0 3.615.756 5.103 1.944-1.382 1.836-2.02 3.888-1.595 5.832.213 1.296 1.063 3.564 2.977 3.564s2.764-2.268 2.977-3.564c.425-1.944-.213-4.104-1.595-5.94 1.488-1.188 3.296-1.944 5.103-1.944 4.146 0 7.442 3.456 7.442 7.56 0 1.512-.319 2.808-.957 3.888z"/></symbol>
<symbol id="filter" viewBox="0 0 32 32"><path d="M.903 7.762h20.665C22.07 9.583 23.675 11 25.681 11s3.611-1.417 4.113-3.238h1.304c.502 0 .903-.405.903-.911s-.401-.911-.903-.911h-1.304c-.301-2.024-2.006-3.44-4.113-3.44a4.206 4.206 0 00-4.113 3.339H.903C.401 5.839 0 6.345 0 6.851s.401.911.903.911zM25.68 4.423c1.304 0 2.407 1.012 2.407 2.327s-1.104 2.327-2.407 2.327c-1.304 0-2.408-1.012-2.408-2.327s1.104-2.327 2.408-2.327zm5.502 19.957h-7.921C22.86 22.434 21.155 21 19.15 21s-3.71 1.434-4.111 3.38H.902c-.501 0-.902.41-.902.922s.401.922.902.922h14.037c.501 1.843 2.105 3.277 4.111 3.277s3.61-1.434 4.111-3.277h7.921c.501 0 .902-.41.902-.922.1-.512-.301-.922-.802-.922zM19.05 27.554c-1.303 0-2.406-1.024-2.406-2.355s1.103-2.355 2.406-2.355c1.303 0 2.406 1.024 2.406 2.355s-1.103 2.355-2.406 2.355zM31.182 14.88H13.836c-.401-1.946-2.106-3.38-4.111-3.38s-3.71 1.434-4.111 3.38H.902c-.501 0-.902.41-.902.922s.401.922.902.922h4.612c.501 1.843 2.106 3.277 4.111 3.277s3.61-1.434 4.111-3.277h17.346c.501 0 .902-.41.902-.922.1-.41-.301-.922-.802-.922zM9.625 18.157c-1.303 0-2.406-1.024-2.406-2.355s1.103-2.355 2.406-2.355c1.303 0 2.406 1.024 2.406 2.355s-1.103 2.355-2.406 2.355z"/></symbol>
<symbol id="user_icon" viewBox="0 0 32 32"><path d="M23.008 28.123A.99.99 0 0123 28v-2a3.004 3.004 0 00-3-3h-8a3.004 3.004 0 00-3 3v2c0 .042-.003.082-.007.123C11.054 29.317 13.447 30 16 30s4.947-.683 7.008-1.877zM25 26.724A13.97 13.97 0 0030 16c0-7.732-6.268-14-14-14S2 8.268 2 16a13.97 13.97 0 005 10.724V26a5 5 0 015-5h8a5.003 5.003 0 015 5v.724zM32 16c0 8.837-7.163 16-16 16S0 24.837 0 16 7.163 0 16 0s16 7.163 16 16zm-16-5a3 3 0 100 6 3 3 0 000-6zm-5 3a5 5 0 1110.001.001A5 5 0 0111 14z"/></symbol>
<symbol id="count_heart" viewBox="0 0 12 13"><path d="M11.024 1.895a3.255 3.255 0 00-4.733 0L6 2.2l-.291-.305a3.255 3.255 0 00-4.733 0c-1.301 1.36-1.301 3.588 0 4.948l4.469 4.672A.755.755 0 006 11.75c.2.003.404-.077.555-.235l4.47-4.672c1.3-1.36 1.3-3.587 0-4.948z"/></symbol>
<symbol id="count_home" viewBox="0 0 12 13"><path d="M6 .5c.2 0 .39.079.531.22l5.258 5.25a.75.75 0 01-.534 1.27.752.752 0 01-.528-.21l-.22-.22v4.94a.75.75 0 01-.751.75H8.253a.752.752 0 01-.75-.75V9.877a1.502 1.502 0 00-3.005 0v1.873a.75.75 0 01-.751.75H2.244a.752.752 0 01-.75-.75V6.81l-.221.22A.752.752 0 01.211 5.97L5.469.72A.747.747 0 016 .5z"/></symbol>
<symbol id="close" viewBox="0 0 32 32"><path d="M4.351 25.951a1.2 1.2 0 101.697 1.697l9.951-9.951 9.951 9.951a1.2 1.2 0 101.697-1.697L17.696 16l9.951-9.951a1.2 1.2 0 10-1.697-1.697l-9.951 9.951-9.951-9.951a1.2 1.2 0 10-1.697 1.697L14.302 16l-9.951 9.951z"/></symbol>
<symbol id="home_details" viewBox="0 0 32 32"><path d="M16.005 14.246a4.343 4.343 0 00-4.267 4.373v5.525a.99.99 0 101.983 0v-5.525a2.324 2.324 0 114.65 0v6.4a1.905 1.905 0 01-1.888 1.919H9.016a1.906 1.906 0 01-1.888-1.919V12.848a1 1 0 00-.992-1.002H4.269l10.56-9.408a1.758 1.758 0 012.346 0l10.56 9.408h-1.941a1 1 0 00-.992 1.002v15.159a.992.992 0 001.984 0V13.861h1.184a1.88 1.88 0 001.77-1.237 1.92 1.92 0 00-.522-2.134L18.477.933a3.746 3.746 0 00-4.95 0L2.786 10.48a1.905 1.905 0 00-.523 2.133 1.877 1.877 0 001.77 1.248H5.1v11.2a3.902 3.902 0 003.872 3.925h7.52a3.905 3.905 0 003.776-3.925v-6.4a4.34 4.34 0 00-2.611-4.057 4.352 4.352 0 00-1.656-.359z"/></symbol>
<symbol id="virtual_tour" viewBox="0 0 32 32"><path d="M6.997 12.849v8.26c0 1.391-2.027 1.299-2.027-.109v-7.137H3.903a1.875 1.875 0 01-1.77-1.248 1.894 1.894 0 01.523-2.133L13.397.935a3.746 3.746 0 014.95 0l10.741 9.557a1.92 1.92 0 01.522 2.134c-.132.364-.373.677-.689.899s-.695.34-1.081.338h-1.184V21.4c0 1.5-1.984 1.5-1.984 0v-8.551a1 1 0 01.992-1.002h1.941l-10.56-9.408a1.758 1.758 0 00-2.346 0l-10.56 9.408h1.867a1 1 0 01.992 1.002z"/><path d="M15.872 14.246a4.343 4.343 0 00-4.267 4.373v.88c0 1.5 1.978 1.5 1.978 0l.006-.88a2.324 2.324 0 114.65 0v5.854c0 1.326 1.899 1.326 1.899 0v-5.811a4.34 4.34 0 00-2.611-4.057 4.352 4.352 0 00-1.656-.359zM3.778 15.371a1 1 0 01-.149 1.406C2.49 17.698 2 18.633 2 19.494c0 1.314 1.181 2.814 3.816 4.044 1.999.933 4.639 1.604 7.623 1.852l-2.173-2.173a.999.999 0 111.414-1.414l3.835 3.835a1 1 0 01.04 1.688l-3.876 3.876a1 1 0 01-1.414-1.414l2.376-2.376c-3.327-.238-6.338-.971-8.672-2.061-2.793-1.303-4.971-3.304-4.971-5.856 0-1.685.966-3.136 2.371-4.272a1 1 0 011.406.149zm24.605.104a1 1 0 011.409-.117c1.315 1.113 2.207 2.518 2.207 4.137 0 2.429-1.977 4.358-4.551 5.652a1 1 0 01-.899-1.787c2.391-1.203 3.449-2.619 3.449-3.866 0-.828-.452-1.723-1.5-2.61a.999.999 0 01-.117-1.409z"/></symbol>
<symbol id="text_icon" viewBox="0 0 32 32"><path d="M25.707 3.2H6.294C2.774 3.2.001 6.08.001 9.6v8.533c0 3.52 2.773 6.4 6.293 6.4h10.773c.533 0 .96.427.96.96l.107 5.547c0 .427.32.853.747.96h.32c.32 0 .64-.107.853-.427l4.373-6.4c.32-.427.747-.64 1.173-.64h.107c3.413 0 6.293-2.88 6.293-6.4V9.6c0-3.52-2.773-6.4-6.293-6.4zm4.266 14.933c0 2.453-1.92 4.373-4.267 4.373h-.107c-1.173 0-2.133.533-2.88 1.493l-2.667 3.84v-2.347c0-1.6-1.387-2.987-2.987-2.987H6.292c-2.347 0-4.267-1.92-4.267-4.373V9.599c0-2.453 1.92-4.373 4.267-4.373h19.413c2.347 0 4.267 1.92 4.267 4.373v8.533z"/><path d="M25.384 8H6.248c-.589 0-.981.406-.981.914s.393 1.016.981 1.016h19.136c.491 0 .883-.406.883-1.016S25.874 8 25.384 8zm.094 4.837H6.253c-.592 0-.986.406-.986.914s.394 1.015.887 1.015h19.225c.493 0 .887-.406.887-1.015s-.296-.914-.789-.914zm-5.065 4.733H6.333c-.533 0-.96.386-.96.965s.427.965.96.965h14.08c.533 0 .96-.386.96-.965s-.427-.965-.96-.965z"/></symbol>
<symbol id="phone_icon" viewBox="0 0 32 32"><path d="M20.659 0h-9.318C8.906 0 7 2.027 7 4.587V27.52C7 29.973 8.906 32 11.341 32h9.318C22.988 32 25 29.973 25 27.413V4.586c0-2.56-1.906-4.587-4.341-4.587zm-9.318 2.027h9.318c1.377 0 2.435 1.173 2.435 2.56v1.6c-.635-.533-1.482-.853-2.435-.853h-9.318c-.953 0-1.8.32-2.435.747V4.588c0-1.493 1.059-2.56 2.435-2.56zM23.094 22.08c0 1.387-1.059 2.56-2.435 2.56h-9.318c-1.377 0-2.435-1.173-2.435-2.56V9.92c0-1.387 1.059-2.56 2.435-2.56h9.318c1.377 0 2.435 1.173 2.435 2.56v12.16zm-2.435 7.893h-9.318c-1.377 0-2.435-1.173-2.435-2.56v-1.6c.635.533 1.482.853 2.435.853h9.318c.847 0 1.694-.32 2.435-.747v1.6c0 1.387-1.059 2.453-2.435 2.453zm-5.188-25.6h1.059c.318 0 .529-.213.529-.533s-.212-.533-.529-.533h-1.059c-.318 0-.529.213-.529.533s.212.533.529.533zm0 23.467h1.059c.318 0 .529.213.529.533s-.212.533-.529.533h-1.059c-.318 0-.529-.213-.529-.533s.212-.533.529-.533z"/></symbol>
<symbol id="luv_icon" viewBox="0 0 20 20"><path d="M9.49089 2.86882L9.99976 3.3747L10 4.87472C9.83997 4.87478 9.67992 4.81412 9.55782 4.69274L8.607 3.74751C7.79879 2.94404 6.70262 2.49266 5.55963 2.49266C4.41665 2.49266 3.32048 2.94404 2.51226 3.74751C1.70405 4.55097 1.25 5.64071 1.25 6.77698C1.25 7.91325 1.70405 9.00299 2.51226 9.80645L10 17.2497L9.99976 18.75C9.834 18.75 9.67503 18.6845 9.55782 18.568L1.62838 10.6851C0.585745 9.64864 0 8.24283 0 6.77698C0 5.31113 0.585746 3.90533 1.62838 2.86882C2.67101 1.83231 4.08513 1.25 5.55963 1.25C7.03414 1.25 8.44825 1.83231 9.49089 2.86882Z"/><path d="M10 17.2497L17.4877 9.80645C18.296 9.00299 18.75 7.91325 18.75 6.77698C18.75 5.64071 18.296 4.55097 17.4877 3.74751C16.6795 2.94404 15.5834 2.49266 14.4404 2.49266C13.2974 2.49266 12.2012 2.94404 11.393 3.74751L10.4422 4.69274C10.3201 4.81412 10.16 4.87478 10 4.87472L9.99976 3.3747L10.5091 2.86882C11.5517 1.83231 12.9659 1.25 14.4404 1.25C15.9149 1.25 17.329 1.83231 18.3716 2.86882C19.4143 3.90533 20 5.31113 20 6.77698C20 8.24283 19.4143 9.64864 18.3716 10.6851L10.4422 18.568C10.325 18.6845 10.1655 18.75 9.99976 18.75L10 17.2497Z"/></symbol>
<symbol id="mail_icon" viewBox="0 0 32 32"><path d="M18.32 4.642l11.173 7.457c.389.26.624.704.624 1.178V26.66c0 .783-.611 1.407-1.362 1.407H3.244c-.75 0-1.362-.626-1.362-1.407V13.277c0-.477.234-.919.622-1.177l11.171-7.458a4.16 4.16 0 014.645 0zm1.026-1.621a6 6 0 00-6.698 0L1.481 10.476l-.001.001a3.356 3.356 0 00-1.481 2.8V26.66c0 1.842 1.449 3.34 3.245 3.34h25.511c1.794 0 3.244-1.492 3.244-3.34V13.277a3.366 3.366 0 00-1.48-2.799L19.345 3.021z"/><path d="M.464 12.147a.944.944 0 01.901-.689h29.269c.413 0 .778.277.9.683s-.029.845-.371 1.084L19.32 21.481a5.476 5.476 0 01-6.225.043L.848 13.232a.981.981 0 01-.384-1.085zm4.039 1.244l9.626 6.517a3.633 3.633 0 004.133-.027l9.309-6.49H4.502z"/><path d="M13.172 20.184a.983.983 0 01-.247 1.343L2.32 28.957c-.429.301-1.015.187-1.308-.254s-.182-1.043.247-1.343l10.605-7.43a.926.926 0 011.308.254zm5.372 0a.926.926 0 011.308-.254l10.605 7.43c.429.301.54.902.247 1.343s-.878.555-1.308.254l-10.605-7.43a.983.983 0 01-.247-1.343z"/></symbol>
<symbol id="location_icon" viewBox="0 0 32 32"><path d="M16 32.001h-.063a1.033 1.033 0 01-.724-.374 50.471 50.471 0 01-6.73-10.592 34.326 34.326 0 01-2.709-8.299 10.366 10.366 0 01-.273-2.368v-.181c.093-2.755 1.244-5.363 3.206-7.267s4.58-2.952 7.294-2.919c2.705-.027 5.314 1.017 7.274 2.91s3.117 4.488 3.226 7.234v.213a9.811 9.811 0 01-.294 2.443 36.932 36.932 0 01-9.45 18.944 1.04 1.04 0 01-.756.256zM9.626 18.603c.21.512.441 1.067.704 1.6a47.025 47.025 0 005.733 9.259 36.507 36.507 0 008.169-17.067 8.41 8.41 0 00.241-2.005v-.107c-.066-2.232-.99-4.348-2.574-5.895S18.197 1.985 16 2.006c-2.196-.021-4.312.833-5.896 2.378s-2.509 3.659-2.578 5.888c.03.717.114 1.43.252 2.133.491 1.828 1.564 3.44 3.051 4.584s3.305 1.756 5.17 1.741a.98.98 0 01.698.294 1.011 1.011 0 010 1.418.98.98 0 01-.698.294 10.583 10.583 0 01-6.373-2.133z"/></symbol>
<symbol id="three_dot" viewBox="0 0 32 32"><path d="M13.333 16a2.667 2.667 0 115.334 0 2.667 2.667 0 01-5.334 0zm9.334 0a2.667 2.667 0 115.334 0 2.667 2.667 0 01-5.334 0zM4 16a2.667 2.667 0 115.334 0A2.667 2.667 0 014 16z"/></symbol>
<symbol id="feed_icon" viewBox="0 0 32 32"><path d="M6 4a1 1 0 00-1 1v8a1 1 0 001 1h9a1 1 0 001-1V5a1 1 0 00-1-1H6zm1 8V6h7v6H7zm21 12a5 5 0 11-10.001-.001A5 5 0 0128 24zm-2 0a3 3 0 11-6 0 3 3 0 016 0zM5 17a1 1 0 011-1h9a1 1 0 011 1v11a1 1 0 01-1 1H6a1 1 0 01-1-1V17zm2 1v9h7v-9H7zm20-1a1 1 0 001-1V5a1 1 0 00-1-1h-8a1 1 0 00-1 1v11a1 1 0 001 1h8zM26 6v9h-6V6h6z"/></symbol>
<symbol id="calendar_icon" viewBox="0 0 32 32"><path d="M23.064 1.116a1.115 1.115 0 10-2.23 0v1.861h-9.667V1.116a1.115 1.115 0 10-2.23 0v1.861H5.591a4.092 4.092 0 00-4.09 4.093v20.837A4.091 4.091 0 005.591 32h20.821a4.091 4.091 0 004.09-4.093V7.07a4.091 4.091 0 00-4.09-4.093h-3.346V1.116zm5.205 10.791H3.731V7.07A1.86 1.86 0 015.59 5.21h3.346v1.86a1.115 1.115 0 102.23 0V5.21h9.667v1.86a1.115 1.115 0 102.23 0V5.21h3.346a1.86 1.86 0 011.859 1.86v4.837zM3.731 14.14h24.538v13.767a1.86 1.86 0 01-1.859 1.86H5.589a1.86 1.86 0 01-1.859-1.86V14.14z"/></symbol>
<symbol id="brochure_icon" viewBox="0 0 32 32"><path d="M27.733 0h-22.4c-.64 0-1.067.427-1.067.96v29.973c0 .64.427 1.067 1.067 1.067h22.4c.533 0 1.067-.427 1.067-.96V.96c0-.533-.427-.96-1.067-.96zm-.96 29.973H6.293V2.026h20.48v27.947z"/><path d="M8.983 7.823h15.035c.491 0 .983-.405.983-.911s-.393-.911-.983-.911H8.983c-.491 0-.983.405-.983.911s.491.911.983.911zm0 4.569h15.035c.491 0 .983-.405.983-.911s-.393-.911-.983-.911H8.983c-.491 0-.983.405-.983.911s.491.911.983.911zm0 4.568h15.035c.491 0 .983-.405.983-.911s-.393-.911-.983-.911H8.983c-.491 0-.983.405-.983.911s.491.911.983.911zm0 4.569h15.035c.491 0 .983-.405.983-.911s-.393-.911-.983-.911H8.983c-.491 0-.983.405-.983.911s.491.911.983.911zM9.234 26h8.039c.49 0 .98-.405.98-.911s-.49-.911-.98-.911H9.234c-.49 0-.98.405-.98.911s.49.911.98.911z"/></symbol>
<symbol id="ask_builder" viewBox="0 0 32 32"><path d="M26.767 32h-.096a3.186 3.186 0 01-2.303-1.066L10.809 14.763l-.128.181a1.682 1.682 0 01-2.132.106.34.34 0 00-.362 0 3.189 3.189 0 01-.714 3.197l-.203.203a2.373 2.373 0 01-1.695.757 2.464 2.464 0 01-1.727-.746L.703 15.135a2.485 2.485 0 010-3.464l.245-.245a3.103 3.103 0 013.549-.597.252.252 0 000-.128l-.213-1.087a2.133 2.133 0 01.522-2.079l5.575-5.65C12.428-.183 15.189-.567 18.163.819a1.654 1.654 0 01.97 1.599 1.698 1.698 0 01-1.119 1.525c-1.15.369-2.2.996-3.07 1.834-.127.125-.212.287-.244.462s-.01.356.063.519l.586 1.375a2.512 2.512 0 01-.085 2.132l10.51 9.711a1.068 1.068 0 01.053 1.365.964.964 0 01-1.058.264.977.977 0 01-.327-.201L13.569 11.351a1.418 1.418 0 01-.118-1.961.489.489 0 00.074-.511l-.576-1.364a2.928 2.928 0 01.608-3.199 9.872 9.872 0 013.006-1.993 4.413 4.413 0 00-4.839.959L6.149 8.964c-.008.017-.013.035-.013.053s.004.037.013.053l.309 1.066a2.244 2.244 0 01-.555 2.196 1.78 1.78 0 01-2.132.319 1.153 1.153 0 00-1.396.16l-.224.288a.46.46 0 000 .64l3.091 3.273a.344.344 0 00.331.138.446.446 0 00.32-.128l.192-.203a1.132 1.132 0 00.246-1.226 1.836 1.836 0 01.394-1.961 2.3 2.3 0 012.793-.383l.171-.149a1.773 1.773 0 011.953-.226c.207.106.391.252.541.429L25.87 29.581a1.145 1.145 0 00.842.415 1.061 1.061 0 00.864-.331l2.228-2.132c.073-.073.13-.159.168-.255s.057-.197.056-.3a.778.778 0 00-.245-.533l-2.047-1.972a.63.63 0 00-.864 0l-1.78 1.663a.973.973 0 01-.709.266c-.13-.005-.258-.036-.376-.09s-.224-.132-.311-.229a1.064 1.064 0 01.054-1.418l1.759-1.642a2.59 2.59 0 013.54 0l2.068 1.908a2.778 2.778 0 01.884 1.985c.006.373-.064.744-.204 1.09s-.35.66-.615.922l-2.217 2.132a3.114 3.114 0 01-2.197.938z"/></symbol>
<symbol id="add_to_planner" viewBox="0 0 32 32"><path d="M3 20v4H2a1 1 0 000 2h1v1a4 4 0 004 4h13a1 1 0 000-2H7a2 2 0 01-2-2v-1h1a1 1 0 000-2H5v-4h1a1 1 0 000-2H5v-4h1a1 1 0 000-2H5V8h1a1 1 0 000-2H5V5a2 2 0 012-2h17a2 2 0 012 2v17h2v-.128l.458-.53.207.658h2.095l-.035-.116-.729-2.322.457-.529a5 5 0 00-.248-6.804l-.104-.104.624-1.987a4.8 4.8 0 00-2.796-5.893A4.002 4.002 0 0024 1H7a4 4 0 00-4 4v1H2a1 1 0 000 2h1v4H2a1 1 0 000 2h1v4H2a1 1 0 000 2h1zM28.816 9.539l-.311.991-.505-.505V6.604a2.796 2.796 0 01.816 2.935zm.123 8.186L28 18.812v-5.96l.79.79a2.999 2.999 0 01.149 4.082zM10 8a1 1 0 000 2h11a1 1 0 000-2H10zm0 4a1 1 0 000 2h11a1 1 0 000-2H10zm-1 5a1 1 0 011-1h11a1 1 0 010 2H10a1 1 0 01-1-1zm18.949 9.997h2.016a1.003 1.003 0 010 2.006h-2.016v2.005a.992.992 0 01-1.984 0v-2.005h-1.963a1.003 1.003 0 010-2.006h1.963v-2.005a.992.992 0 011.984 0v2.005z"/></symbol>
<symbol id="expand_icon" viewBox="0 0 32 32"><path d="M30.5 0A1.5 1.5 0 0132 1.5v12a1.5 1.5 0 01-3 0V5.121L5.121 29H13.5a1.5 1.5 0 010 3h-12A1.5 1.5 0 010 30.5v-12a1.5 1.5 0 013 0v8.379L26.879 3H18.5a1.5 1.5 0 010-3h12z"/></symbol>
<symbol id="gallery_icon" viewBox="0 0 32 32"><path d="M4 2a2 2 0 00-2 2v24a2 2 0 002 2h24a2 2 0 002-2V4a2 2 0 00-2-2H4zM0 4a4 4 0 014-4h24a4 4 0 014 4v24a4 4 0 01-4 4H4a4 4 0 01-4-4V4zm18.147 1.043l8.099 6.976c1.405 1.21.549 3.515-1.305 3.515h-.391V26.7a1 1 0 01-2 0V14.534a1 1 0 011-1h1.391l-8.099-6.976a1 1 0 00-1.289-.014l-8.47 6.989h1.8a1 1 0 011 1v9.166a2 2 0 002 2h4.083a2 2 0 002-2v-5.25a1.75 1.75 0 00-3.5 0v4.583a1 1 0 01-2 0v-4.583a3.75 3.75 0 017.5 0v5.25a4 4 0 01-4 4h-4.083a4 4 0 01-4-4v-8.166h-.8c-1.875 0-2.719-2.349-1.273-3.543l8.47-6.989a3 3 0 013.867.041z"/></symbol>
<symbol id="search_icon" viewBox="0 0 32 32"><path d="M29.686 29.4l-6.297-6.3c2.399-2.3 3.898-5.6 3.898-9.2C27.387 6.7 21.69 1 14.693 1S1.999 6.7 1.999 13.8s5.697 12.8 12.694 12.8c2.699 0 5.197-.9 7.296-2.4l6.397 6.5c.2.2.4.3.7.3s.5-.1.7-.3c.3-.3.3-.9-.1-1.3zM3.899 13.8c0-6 4.898-10.9 10.795-10.9s10.795 4.9 10.795 10.9-4.898 10.9-10.795 10.9S3.899 19.8 3.899 13.8z"/></symbol>
<symbol id="menu_icon" viewBox="0 0 32 32"><path d="M4 9a1 1 0 011-1h22a1 1 0 010 2H5a1 1 0 01-1-1zm0 7a1 1 0 011-1h22a1 1 0 010 2H5a1 1 0 01-1-1zm1 6a1 1 0 000 2h22a1 1 0 000-2H5z"/></symbol>
<symbol id="setting" viewBox="0 0 16 16"><path d="M8 6.417a1.583 1.583 0 100 3.166 1.583 1.583 0 000-3.166zM5.476 8a2.524 2.524 0 115.048 0 2.524 2.524 0 01-5.048 0z"/><path d="M8 .941a.898.898 0 00-.898.899v.118a1.6 1.6 0 01-.97 1.464.47.47 0 01-.145.036 1.6 1.6 0 01-1.67-.358l-.004-.004-.04-.04a.9.9 0 00-1.272 0 .898.898 0 000 1.27l.044.046a1.6 1.6 0 01.326 1.75 1.6 1.6 0 01-1.459 1.034H1.84a.898.898 0 000 1.797h.118a1.6 1.6 0 011.463.968 1.6 1.6 0 01-.321 1.762l-.004.004-.04.04a.9.9 0 000 1.272.897.897 0 001.27 0l.046-.044a1.6 1.6 0 011.75-.326 1.6 1.6 0 011.034 1.459v.072a.898.898 0 001.797 0V14.042a1.6 1.6 0 01.968-1.463 1.6 1.6 0 011.762.321l.004.004.04.04a.9.9 0 001.272 0 .896.896 0 000-1.27l-.044-.046a1.6 1.6 0 01-.43-.833 1.632 1.632 0 01.695-1.63 1.6 1.6 0 01.877-.267h.063a.898.898 0 000-1.796H14.042a1.6 1.6 0 01-1.464-.97.471.471 0 01-.036-.145 1.6 1.6 0 01.358-1.67l.004-.004.04-.04a.9.9 0 000-1.272.898.898 0 00-1.27 0l-.046.044a1.6 1.6 0 01-1.762.321 1.6 1.6 0 01-.968-1.463V1.84A.898.898 0 008 .94zM6.7.54a1.84 1.84 0 013.14 1.3V1.9a.659.659 0 00.399.602l.004.002a.659.659 0 00.726-.13l.038-.039a1.84 1.84 0 112.603 2.603l-.039.039a.658.658 0 00-.13.725c.018.04.03.083.036.127a.658.658 0 00.568.331h.115a1.84 1.84 0 110 3.68h-.06a.659.659 0 00-.36.11.692.692 0 00-.29.677.66.66 0 00.176.342l.039.038a1.84 1.84 0 11-2.603 2.603l-.039-.039a.658.658 0 00-.725-.13l-.004.002a.66.66 0 00-.4.602v.115a1.84 1.84 0 11-3.679 0v-.055a.659.659 0 00-.458-.61.66.66 0 00-.726.13l-.038.04a1.843 1.843 0 01-2.603 0 1.839 1.839 0 010-2.603l.039-.039a.659.659 0 00.13-.725l-.002-.004a.658.658 0 00-.602-.4H1.84a1.84 1.84 0 110-3.679h.055a.659.659 0 00.61-.458.659.659 0 00-.131-.726l-.039-.038A1.84 1.84 0 114.938 2.39l.039.039a.659.659 0 00.725.13.47.47 0 01.127-.036.659.659 0 00.331-.568V1.84c0-.488.194-.956.54-1.301z"/></symbol>
<symbol  id="direction_icon" viewBox="0 0 24 24"><path d="M6.14457 3.97628C7.69753 2.39074 9.80379 1.5 12 1.5C14.1962 1.5 16.3025 2.39074 17.8554 3.97628C19.4084 5.56181 20.2808 7.71226 20.2808 9.95454C20.2808 13.2326 18.1991 16.3736 15.9744 18.7711C14.8771 19.9537 13.7773 20.9208 12.9511 21.5926C12.5625 21.9085 12.2358 22.158 12 22.3328C11.7642 22.158 11.4375 21.9085 11.0489 21.5926C10.2227 20.9208 9.12286 19.9537 8.02557 18.7711C5.80094 16.3736 3.71918 13.2326 3.71918 9.95454C3.71918 7.71226 4.59162 5.56181 6.14457 3.97628ZM11.5921 23.8737C11.5923 23.8739 11.5925 23.874 12 23.25C12.4075 23.874 12.4077 23.8739 12.4079 23.8737C12.1612 24.0417 11.8388 24.0417 11.5921 23.8737ZM11.5921 23.8737L12 23.25L12.4079 23.8737L12.4104 23.872L12.4166 23.8678L12.4386 23.8526C12.4575 23.8395 12.4846 23.8206 12.5195 23.7959C12.5893 23.7466 12.6901 23.6743 12.8175 23.5804C13.0722 23.3925 13.4336 23.1178 13.8663 22.766C14.7304 22.0635 15.8844 21.0492 17.041 19.8027C19.3241 17.3423 21.75 13.8355 21.75 9.95454C21.75 7.31444 20.7228 4.78246 18.8943 2.91562C17.0658 1.04878 14.5859 0 12 0C9.41414 0 6.93419 1.04878 5.10571 2.91562C3.27723 4.78246 2.25 7.31444 2.25 9.95454C2.25 13.8355 4.67594 17.3423 6.95902 19.8027C8.11558 21.0492 9.26964 22.0635 10.1337 22.766C10.5664 23.1178 10.9278 23.3925 11.1825 23.5804C11.3099 23.6743 11.4107 23.7466 11.4805 23.7959C11.5154 23.8206 11.5425 23.8395 11.5614 23.8526L11.5834 23.8678L11.5896 23.872L11.5915 23.8733L11.5921 23.8737ZM9.74973 9.9546C9.74973 8.6743 10.7874 7.63641 12.0675 7.63641C13.3476 7.63641 14.3853 8.6743 14.3853 9.9546C14.3853 11.2349 13.3476 12.2728 12.0675 12.2728C10.7874 12.2728 9.74973 11.2349 9.74973 9.9546ZM12.0675 6.13641C9.95915 6.13641 8.25 7.84587 8.25 9.9546C8.25 12.0633 9.95915 13.7728 12.0675 13.7728C14.1758 13.7728 15.885 12.0633 15.885 9.9546C15.885 7.84587 14.1758 6.13641 12.0675 6.13641Z"/></symbol>
<symbol viewBox="0 0 14 16" id="location_icon_small"><path d="M7 8.01168e-09C5.32023 -8.43115e-05 3.70831 0.665405 2.51458 1.85183C1.32086 3.03825 0.641798 4.64971 0.625 6.33598C0.625 10.72 6.24297 15.5999 6.48203 15.8079C6.62637 15.9319 6.81006 16 7 16C7.18994 16 7.37363 15.9319 7.51797 15.8079C7.79687 15.5999 13.375 10.72 13.375 6.33598C13.3582 4.64971 12.6791 3.03825 11.4854 1.85183C10.2917 0.665405 8.67977 -8.43115e-05 7 8.01168e-09ZM7 8.79997C6.44838 8.79997 5.90914 8.63575 5.45048 8.32809C4.99182 8.02042 4.63434 7.58312 4.42324 7.07149C4.21214 6.55986 4.15691 5.99687 4.26453 5.45373C4.37214 4.91058 4.63778 4.41167 5.02784 4.02009C5.41789 3.6285 5.91486 3.36183 6.45588 3.25379C6.99691 3.14575 7.55769 3.2012 8.06733 3.41313C8.57696 3.62505 9.01256 3.98393 9.31902 4.44439C9.62549 4.90485 9.78906 5.44619 9.78906 5.99998C9.78906 6.74258 9.49522 7.45477 8.97217 7.97987C8.44911 8.50497 7.73971 8.79997 7 8.79997Z"/></symbol>
<symbol id="grid_icon" viewBox="0 0 12 12"><path d="M0 4.875H5.625V12H2C0.89543 12 0 11.1046 0 10V4.875Z"/><path d="M6.75 0H10C11.1046 0 12 0.895431 12 2V7.125H6.75V0Z"/><path d="M0 2C0 0.895431 0.895431 0 2 0H5.625V3.75H0V2Z"/><path d="M6.75 8.25H12V10C12 11.1046 11.1046 12 10 12H6.75V8.25Z"/></symbol>
<symbol id="right_tick" viewBox="0 0 24 24"><path fill-rule="evenodd" clip-rule="evenodd" d="M15.996 3.0318C14.0621 2.1701 11.9014 1.95662 9.83626 2.42322C7.7711 2.88981 5.91209 4.01148 4.53649 5.62093C3.16089 7.23038 2.34241 9.24137 2.2031 11.354C2.0638 13.4666 2.61114 15.5677 3.76349 17.3438C4.91584 19.12 6.61147 20.476 8.59748 21.2098C10.5835 21.9435 12.7535 22.0156 14.7838 21.4153C16.8141 20.815 18.596 19.5744 19.8637 17.8787C21.1314 16.1829 21.817 14.1228 21.8182 12.0056V11.0026C21.8182 10.4001 22.3066 9.9117 22.9091 9.9117C23.5116 9.9117 24 10.4001 24 11.0026V12.0062C23.9985 14.5939 23.1606 17.1125 21.6112 19.1851C20.0618 21.2576 17.8839 22.7738 15.4024 23.5075C12.9209 24.2412 10.2687 24.1531 7.84136 23.2564C5.41402 22.3596 3.34158 20.7022 1.93315 18.5313C0.524719 16.3605 -0.144251 13.7925 0.0260121 11.2104C0.196275 8.62834 1.19665 6.17046 2.87793 4.20335C4.55922 2.23625 6.83134 0.865327 9.35542 0.295044C11.8795 -0.27524 14.5203 -0.0143272 16.884 1.03887C17.4343 1.28408 17.6817 1.929 17.4365 2.47934C17.1913 3.02967 16.5463 3.27702 15.996 3.0318Z"/><path fill-rule="evenodd" clip-rule="evenodd" d="M23.6804 2.50712C24.1067 2.93294 24.107 3.62366 23.6812 4.0499L12.7721 14.9699C12.5676 15.1747 12.29 15.2897 12.0006 15.2898C11.7112 15.2899 11.4336 15.1749 11.229 14.9703L7.95624 11.6976C7.53021 11.2715 7.53021 10.5808 7.95624 10.1548C8.38226 9.72875 9.07299 9.72875 9.49902 10.1548L12 12.6557L22.1377 2.50789C22.5635 2.08165 23.2542 2.08131 23.6804 2.50712Z"/></symbol>
<symbol id="right_tick" viewBox="0 0 24 24"><path fill-rule="evenodd" clip-rule="evenodd" d="M15.996 3.0318C14.0621 2.1701 11.9014 1.95662 9.83626 2.42322C7.7711 2.88981 5.91209 4.01148 4.53649 5.62093C3.16089 7.23038 2.34241 9.24137 2.2031 11.354C2.0638 13.4666 2.61114 15.5677 3.76349 17.3438C4.91584 19.12 6.61147 20.476 8.59748 21.2098C10.5835 21.9435 12.7535 22.0156 14.7838 21.4153C16.8141 20.815 18.596 19.5744 19.8637 17.8787C21.1314 16.1829 21.817 14.1228 21.8182 12.0056V11.0026C21.8182 10.4001 22.3066 9.9117 22.9091 9.9117C23.5116 9.9117 24 10.4001 24 11.0026V12.0062C23.9985 14.5939 23.1606 17.1125 21.6112 19.1851C20.0618 21.2576 17.8839 22.7738 15.4024 23.5075C12.9209 24.2412 10.2687 24.1531 7.84136 23.2564C5.41402 22.3596 3.34158 20.7022 1.93315 18.5313C0.524719 16.3605 -0.144251 13.7925 0.0260121 11.2104C0.196275 8.62834 1.19665 6.17046 2.87793 4.20335C4.55922 2.23625 6.83134 0.865327 9.35542 0.295044C11.8795 -0.27524 14.5203 -0.0143272 16.884 1.03887C17.4343 1.28408 17.6817 1.929 17.4365 2.47934C17.1913 3.02967 16.5463 3.27702 15.996 3.0318Z"/><path fill-rule="evenodd" clip-rule="evenodd" d="M23.6804 2.50712C24.1067 2.93294 24.107 3.62366 23.6812 4.0499L12.7721 14.9699C12.5676 15.1747 12.29 15.2897 12.0006 15.2898C11.7112 15.2899 11.4336 15.1749 11.229 14.9703L7.95624 11.6976C7.53021 11.2715 7.53021 10.5808 7.95624 10.1548C8.38226 9.72875 9.07299 9.72875 9.49902 10.1548L12 12.6557L22.1377 2.50789C22.5635 2.08165 23.2542 2.08131 23.6804 2.50712Z"/></symbol>

<symbol id="arrow_dropdown" viewBox="0 0 8 5">
<path fill-rule="evenodd" clip-rule="evenodd" d="M4 5C3.86921 5 3.74377 4.94796 3.65129 4.85534L0.14444 1.34315C-0.0481466 1.15026 -0.0481466 0.837543 0.14444 0.644662C0.337028 0.451781 0.649274 0.451781 0.841861 0.644662L4 3.80761L7.15814 0.644662C7.35073 0.45178 7.66297 0.45178 7.85556 0.644661C8.04815 0.837542 8.04815 1.15026 7.85556 1.34314L4.34871 4.85534C4.25623 4.94796 4.13079 5 4 5Z"/>
</symbol>
<symbol id="edit_icon" viewBox="0 0 24 24">
<path fill-rule="evenodd" clip-rule="evenodd" d="M19.9782 1.67442C19.6699 1.67442 19.3646 1.73513 19.0798 1.8531C18.795 1.97107 18.5363 2.14398 18.3183 2.36196L3.27534 17.4049L2.03043 21.9696L6.5951 20.7247L21.638 5.68172C21.856 5.46374 22.0289 5.20496 22.1469 4.92016C22.2649 4.63536 22.3256 4.33011 22.3256 4.02184C22.3256 3.71357 22.2649 3.40832 22.1469 3.12352C22.0289 2.83872 21.856 2.57994 21.638 2.36196C21.4201 2.14398 21.1613 1.97107 20.8765 1.8531C20.5917 1.73513 20.2864 1.67442 19.9782 1.67442ZM18.4391 0.306144C18.927 0.104028 19.45 0 19.9782 0C20.5063 0 21.0293 0.104028 21.5173 0.306144C22.0052 0.50826 22.4486 0.804507 22.822 1.17797C23.1955 1.55143 23.4917 1.9948 23.6939 2.48275C23.896 2.9707 24 3.49369 24 4.02184C24 4.54999 23.896 5.07298 23.6939 5.56093C23.4917 6.04888 23.1955 6.49225 22.822 6.86571L7.62188 22.0659C7.51886 22.1689 7.39073 22.2432 7.25017 22.2816L1.05751 23.9705C0.76766 24.0495 0.457674 23.9672 0.245232 23.7548C0.0327904 23.5423 -0.0495311 23.2323 0.0295194 22.9425L1.71843 16.7498C1.75676 16.6093 1.83111 16.4811 1.93414 16.3781L17.1343 1.17797C17.5078 0.804507 17.9511 0.50826 18.4391 0.306144Z"/>
</symbol>
<symbol id="builder_icon" viewBox="0 0 16 16">
<path d="M13.9476 9.30263C13.935 9.5582 13.938 9.80982 13.9078 10.0577C13.6996 11.7765 12.9536 13.2439 11.677 14.4507C10.9119 15.1742 10.0151 15.6856 8.9589 15.8986C7.65833 16.1606 6.44708 15.9081 5.34207 15.2195C3.70907 14.2022 2.71566 12.7328 2.25322 10.9241C2.13648 10.4673 2.11956 9.9865 2.05937 9.51647C2.05102 9.45149 2.0583 9.38464 2.0583 9.30263H13.9476ZM8.88081 0.00615068C9.26721 0.0117561 9.59792 0.156045 9.83717 0.456871C9.88793 0.520815 9.91921 0.628564 9.90528 0.707248C9.72579 1.72806 9.53559 2.74722 9.35031 3.76741C9.29934 4.04665 9.46426 4.27792 9.7425 4.329C9.98818 4.37384 10.2261 4.20713 10.278 3.93412C10.4395 3.07753 10.5937 2.21968 10.7513 1.36246C10.764 1.2925 10.7788 1.22295 10.7989 1.1233C12.9597 2.30584 14.0966 4.07177 14.1977 6.46633C14.3382 6.47941 14.4817 6.48128 14.6203 6.50744C15.0816 6.59484 15.3747 6.99678 15.3286 7.4668C15.2868 7.89323 14.9066 8.23911 14.4577 8.24202C13.653 8.24742 12.8485 8.24409 12.0436 8.24409L1.60366 8.24368C1.01528 8.24347 0.61174 7.80894 0.672785 7.24736C0.718622 6.82654 1.10181 6.49395 1.55654 6.48128C1.63579 6.479 1.71547 6.48087 1.80243 6.48087C1.89882 4.07654 3.04003 2.30792 5.20507 1.1206C5.35179 1.92467 5.49209 2.69532 5.63303 3.46575C5.6628 3.62811 5.69 3.79108 5.72577 3.95218C5.78296 4.21024 6.02007 4.37425 6.26061 4.32817C6.53327 4.27605 6.6982 4.05184 6.65193 3.77987C6.59003 3.41365 6.51978 3.04888 6.45252 2.68369C6.33043 2.01913 6.20492 1.35499 6.09032 0.689186C6.07833 0.619221 6.10896 0.524136 6.15437 0.466421C6.3964 0.159782 6.72926 0.0115485 7.12208 0.00615068C7.70832 -0.00194609 8.29478 -0.0021537 8.88081 0.00615068Z"/>
</symbol>
<symbol id="map_dir_icon" viewBox="0 0 24 24">
<path fill-rule="evenodd" clip-rule="evenodd" d="M16.4424 3.69025L7.74228 0.790196C7.66398 0.763469 7.58213 0.75002 7.50014 0.75C7.40281 0.749977 7.30528 0.768882 7.21326 0.806973C7.19601 0.814108 7.179 0.821903 7.16225 0.830351L1.16459 3.82918C0.910502 3.95622 0.75 4.21592 0.75 4.5V23.25C0.75 23.5099 0.884589 23.7513 1.1057 23.888C1.32681 24.0246 1.60292 24.0371 1.83541 23.9208L7.55754 21.0598L16.2589 23.9602C16.2886 23.9703 16.3189 23.9785 16.3495 23.9848C16.3664 23.9882 16.3833 23.9911 16.4003 23.9934C16.442 23.999 16.4839 24.001 16.5256 23.9996C16.6187 23.9964 16.7107 23.9759 16.7967 23.9388C16.8111 23.9326 16.8254 23.926 16.8394 23.9188L22.8354 20.9208C23.0895 20.7938 23.25 20.5341 23.25 20.25V1.5C23.25 1.24007 23.1154 0.998668 22.8943 0.862013C22.6732 0.725358 22.3971 0.712935 22.1646 0.82918L16.4424 3.69025ZM17.25 4.96353V22.0365L21.75 19.7865V2.71353L17.25 4.96353ZM15.75 5.04058L8.25 2.54058V19.7094L15.75 22.2094V5.04058ZM6.75 2.71353V19.7865L2.25 22.0365V4.96353L6.75 2.71353Z" fill="#DC1C8A"/>
</symbol>
<symbol id="collapse_icon" viewBox="0 0 17 13">
<path fill-rule="evenodd" clip-rule="evenodd" d="M7.5 6.625C7.5 6.82119 7.42195 7.00934 7.28301 7.14807L2.01472 12.4083C1.7254 12.6972 1.25631 12.6972 0.966992 12.4083C0.677671 12.1195 0.677671 11.6511 0.966992 11.3622L5.71142 6.625L0.966991 1.88779C0.67767 1.59891 0.67767 1.13054 0.966991 0.841662C1.25631 0.552781 1.72539 0.552781 2.01472 0.841661L7.28301 6.10193C7.42195 6.24066 7.5 6.42881 7.5 6.625Z" fill="black"/>
<path fill-rule="evenodd" clip-rule="evenodd" d="M16.875 6.625C16.875 6.82119 16.7969 7.00934 16.658 7.14807L11.3897 12.4083C11.1004 12.6972 10.6313 12.6972 10.342 12.4083C10.0527 12.1195 10.0527 11.6511 10.342 11.3622L15.0864 6.625L10.342 1.88779C10.0527 1.59891 10.0527 1.13054 10.342 0.841662C10.6313 0.552781 11.1004 0.552781 11.3897 0.841661L16.658 6.10193C16.7969 6.24066 16.875 6.42881 16.875 6.625Z" fill="black"/>
</symbol>
<symbol id="map_icon" viewBox="0 0 32 32">
<path fill-rule="evenodd" clip-rule="evenodd" d="M10.0051 1.50905C10.3922 1.28787 10.8642 1.27477 11.263 1.47414L21.2914 6.48835L30.0051 1.50905C30.4178 1.27324 30.9248 1.27493 31.3359 1.51349C31.747 1.75206 32 2.19141 32 2.66671V24C32 24.4785 31.7436 24.9203 31.3282 25.1577L21.9949 30.491C21.6078 30.7122 21.1358 30.7253 20.737 30.5259L10.7086 25.5117L1.99485 30.491C1.58218 30.7268 1.07518 30.7252 0.664098 30.4866C0.253011 30.248 0 29.8087 0 29.3334V8.00004C0 7.52157 0.256381 7.07977 0.671815 6.84238L10.0051 1.50905ZM10.7086 4.1784L2.66667 8.77381V27.0358L10.0051 22.8424C10.3922 22.6212 10.8642 22.6081 11.263 22.8075L21.2914 27.8217L29.3333 23.2263V4.96428L21.9949 9.1577C21.6078 9.37888 21.1358 9.39198 20.737 9.19261L10.7086 4.1784Z" fill="#B8B8B8"/>
<path fill-rule="evenodd" clip-rule="evenodd" d="M10.6663 1.33337C11.4027 1.33337 11.9997 1.93033 11.9997 2.66671V24C11.9997 24.7364 11.4027 25.3334 10.6663 25.3334C9.92996 25.3334 9.33301 24.7364 9.33301 24V2.66671C9.33301 1.93033 9.92996 1.33337 10.6663 1.33337Z" fill="#B8B8B8"/>
<path fill-rule="evenodd" clip-rule="evenodd" d="M21.3333 6.66663C22.0697 6.66663 22.6667 7.26358 22.6667 7.99996V29.3333C22.6667 30.0697 22.0697 30.6666 21.3333 30.6666C20.597 30.6666 20 30.0697 20 29.3333V7.99996C20 7.26358 20.597 6.66663 21.3333 6.66663Z" fill="#B8B8B8"/>
</symbol>
<symbol id="share_icon" viewBox="0 0 29 32">
<path fill-rule="evenodd" clip-rule="evenodd" d="M23.3475 2.46153C21.583 2.46153 20.1526 3.89422 20.1526 5.66153C20.1526 6.22134 20.2961 6.74758 20.5483 7.20535C20.5626 7.22678 20.5764 7.24879 20.5896 7.27139C20.6026 7.29381 20.6149 7.31647 20.6264 7.33934C21.189 8.25275 22.1973 8.86152 23.3475 8.86152C25.112 8.86152 26.5424 7.42884 26.5424 5.66153C26.5424 3.89422 25.112 2.46153 23.3475 2.46153ZM19.2003 9.50848C20.2327 10.6245 21.7086 11.3231 23.3475 11.3231C26.4693 11.3231 29 8.7883 29 5.66153C29 2.53475 26.4693 0 23.3475 0C20.2257 0 17.6949 2.53475 17.6949 5.66153C17.6949 6.26169 17.7882 6.84004 17.9609 7.38284L9.79987 12.153C8.76743 11.0369 7.29144 10.3383 5.65254 10.3383C2.53073 10.3383 0 12.8731 0 15.9999C0 19.1266 2.53073 21.6614 5.65254 21.6614C7.29156 21.6614 8.76766 20.9627 9.80011 19.8464L17.963 24.6107C17.7889 25.1554 17.6949 25.736 17.6949 26.3385C17.6949 29.4653 20.2257 32.0001 23.3475 32.0001C26.4693 32.0001 29 29.4653 29 26.3385C29 23.2118 26.4693 20.677 23.3475 20.677C21.7111 20.677 20.2371 21.3735 19.2049 22.4866L11.0392 17.7207C11.2119 17.178 11.3051 16.5998 11.3051 15.9999C11.3051 15.3997 11.2119 14.8215 11.0391 14.2787L19.2003 9.50848ZM8.37258 14.3204C8.38435 14.3439 8.39694 14.3672 8.41036 14.3902C8.42387 14.4134 8.43803 14.436 8.45278 14.458C8.70433 14.9153 8.84745 15.4408 8.84745 15.9999C8.84745 16.5598 8.70385 17.0862 8.45151 17.544C8.43707 17.5656 8.42321 17.5878 8.40997 17.6106C8.39712 17.6327 8.38503 17.655 8.3737 17.6775C7.8111 18.591 6.80281 19.1998 5.65254 19.1998C3.88804 19.1998 2.45762 17.7672 2.45762 15.9999C2.45762 14.2325 3.88804 12.7999 5.65254 12.7999C6.80205 12.7999 7.80977 13.4079 8.37258 14.3204ZM20.1526 26.3385C20.1526 25.8097 20.2806 25.3108 20.5074 24.8714C20.5427 24.8266 20.5752 24.7787 20.6047 24.728C20.6331 24.6792 20.6578 24.6292 20.6788 24.5785C21.2503 23.7109 22.2322 23.1385 23.3475 23.1385C25.112 23.1385 26.5424 24.5712 26.5424 26.3385C26.5424 28.1058 25.112 29.5385 23.3475 29.5385C21.583 29.5385 20.1526 28.1058 20.1526 26.3385Z" fill="#DC1C8A"/>
</symbol>
</defs></svg>


